<?xml version="1.0" encoding="utf-8"?>
<!-- Generator: Adobe Illustrator 25.2.0, SVG Export Plug-In . SVG Version: 6.00 Build 0)  -->
<svg version="1.1" id="Layer_1" xmlns="http://www.w3.org/2000/svg" xmlns:xlink="http://www.w3.org/1999/xlink" x="0px" y="0px"
	 viewBox="0 0 1493.32 466.56" style="enable-background:new 0 0 1493.32 466.56;background: #ffffff" xml:space="preserve">
<style type="text/css">
	.st0{fill:#FFFFFF;}
	.st1{fill:#00E5C8;}
	.st2{fill:#A162F7;}
	.st3{fill:#1DAEFC;}
	.st4{fill:#02174F;}
</style>
<g>
	<path class="st4" d="M462.57,134.28v26.3h41.55v43.46h-41.55v145.24H411.1V204.04h-26.69v-43.46h26.69v-30.88
		c0-48.41,28.97-70.91,72.81-70.91c11.82,0,20.97,1.91,28.21,4.19v43.08c-5.72-0.76-10.29-1.14-15.25-1.14
		C474,104.93,462.57,112.55,462.57,134.28z"/>
	<path class="st4" d="M538.42,63.38h51.46v285.91h-51.46V63.38z"/>
	<path class="st4" d="M816.32,160.59l-90.35,205.09c-17.15,38.88-39.65,56.8-75.1,56.8c-10.67,0-23.25-1.91-33.17-4.57v-43.08
		c8.77,0.76,16.01,1.53,22.11,1.53c16.39,0,29.73-4.19,39.26-25.54l5.72-12.96l-72.43-177.26h54.51l46.13,123.89l49.18-123.89
		H816.32z"/>
	<path class="st4" d="M1030.56,255.13c0,56.8-38.12,98.73-91.49,98.73c-25.92,0-47.65-10.29-60.61-27.83v23.25h-47.27V63.38h51.46
		v115.51c13.34-14.49,32.78-22.49,56.42-22.49C992.44,156.39,1030.56,198.33,1030.56,255.13z M978.33,254.75
		c0-32.02-22.11-51.84-48.79-51.84c-24.02,0-47.65,16.39-47.65,52.23c0,36.21,24.02,51.84,47.65,51.84
		C956.6,306.97,978.33,286.77,978.33,254.75z"/>
	<path class="st4" d="M1053.81,266.18v-105.6h51.46v109.79c0,22.11,15.63,36.21,35.83,36.21c19.44,0,35.07-14.11,35.07-36.21V160.59
		h51.46v105.6c0,53.37-37.36,87.68-86.53,87.68C1091.17,353.86,1053.81,319.55,1053.81,266.18z"/>
	<path class="st4" d="M1452.16,160.59l-90.35,205.09c-17.15,38.88-39.65,56.8-75.1,56.8c-10.67,0-23.25-1.91-33.17-4.57v-43.08
		c8.77,0.76,16.01,1.53,22.11,1.53c16.39,0,29.73-4.19,39.26-25.54l5.72-12.96l-72.43-177.26h54.51l46.13,123.89l49.18-123.89
		H1452.16z"/>
</g>
<path class="st1" d="M173.35,86.99c18.25,0,35.1,6.07,48.67,16.28c2.91,2.19,6.97,1.96,9.54-0.63l20.35-20.6
	c2.97-3.01,2.75-7.96-0.54-10.61c-21.35-17.26-48.49-27.61-78.02-27.61c-30.4,0-58.26,10.99-79.88,29.18
	c-3.22,2.71-3.37,7.64-0.37,10.6l20.55,20.31c2.61,2.58,6.71,2.75,9.59,0.47C137.05,93.5,154.45,86.99,173.35,86.99z"/>
<path class="st2" d="M254.49,168.13c0,15.58-4.28,30.35-12.46,43.25c-0.11,0.18-0.23,0.35-0.36,0.52l-6.18,8.38
	c-0.03,0.05-0.07,0.09-0.11,0.13l0,0c-0.98,1.17-0.89,2.9,0.2,3.97l23.32,23.05c3.02,2.98,7.95,2.72,10.64-0.56v0
	c0.2-0.25,0.4-0.49,0.6-0.74l0.04-0.06c17.72-22,27.47-49.64,27.47-77.94c0-26.76-8.51-51.57-22.95-71.88
	c-2.57-3.61-7.82-3.96-10.93-0.81l-20.64,20.89c-2.36,2.39-2.73,6.07-0.95,8.92C249.98,137.7,254.49,152.4,254.49,168.13z"/>
<path class="st3" d="M111.19,220.27l-6.19-8.41c-0.12-0.17-0.24-0.34-0.36-0.52c-8.16-12.88-12.43-27.64-12.43-43.21
	c0-15.1,4.16-29.25,11.38-41.37c1.69-2.84,1.23-6.47-1.13-8.8L81.55,97.3c-3.16-3.13-8.44-2.7-10.94,0.97
	c-13.6,19.92-21.57,43.97-21.57,69.86c0,28.31,9.75,55.94,27.47,77.94l0.31,0.39c0.11,0.14,0.22,0.27,0.33,0.41l0.35,0.43
	c2.72,3.27,7.67,3.49,10.67,0.46l23.03-23.31c1.06-1.08,1.14-2.78,0.17-3.95l-0.08-0.09C111.26,220.36,111.23,220.32,111.19,220.27z
	"/>
<path class="st4" d="M167.81,288.42l-38.18-45.95c-2.72-3.27-7.67-3.49-10.67-0.46l-20.32,20.56c-2.6,2.64-2.78,6.82-0.42,9.67
	l57.82,69.57c9,10.83,25.61,10.83,34.61,0l58.16-69.99c2.39-2.88,2.18-7.1-0.48-9.73L227.8,241.8c-3-2.97-7.91-2.73-10.6,0.52
	l-38.3,46.09C176.01,291.88,170.69,291.88,167.81,288.42z"/>
</svg>
