<svg width="201" height="211" viewBox="0 0 201 211" fill="none" xmlns="http://www.w3.org/2000/svg">
<rect x="33.3428" width="133.373" height="133.373" fill="#ED1E79"/>
<path d="M122.656 77.7066C122.388 75.0405 121.304 72.5209 119.552 70.4885C117.704 68.4667 114.973 67.0488 111.359 66.2349L77.3662 81.4112V97.9269L122.656 77.7066Z" fill="white"/>
<path d="M79.1577 100.029H102.677C108.715 100.029 113.582 98.2728 117.28 94.7603C121.007 91.277 122.871 86.6702 122.871 80.9399C122.871 80.7967 122.867 80.6567 122.864 80.5151L79.1577 100.029Z" fill="white"/>
<path d="M117.657 40.4461C117.101 39.7656 116.497 39.1252 115.85 38.5296C112.065 35.072 106.244 33.3433 98.3864 33.3433H77.3691V58.4288L117.657 40.4461Z" fill="white"/>
<path d="M77.3691 61.3321V78.5105L120.197 59.3893C121.202 57.1503 121.686 54.7141 121.613 52.2625C121.684 48.9032 120.848 45.5865 119.194 42.6587L77.3691 61.3321Z" fill="white"/>
<path d="M27.6379 188.214C32.9084 187.254 36.3149 183.477 36.3149 177.781C36.3149 170.676 30.7873 166.195 21.9818 166.195H0V211H22.496C31.3658 211 37.0219 206.2 37.0219 198.647C37.0219 192.694 33.1655 188.854 27.6379 188.214ZM17.6111 174.772C20.9534 174.772 22.9459 176.5 22.9459 179.445C22.9459 182.389 20.8891 184.245 17.6111 184.245H13.369V174.772H17.6111ZM13.369 201.719V191.99H17.9968C21.2748 191.99 23.3958 193.91 23.3958 196.791C23.3958 199.799 21.339 201.719 17.9325 201.719H13.369Z" fill="black"/>
<path d="M55.8628 211V166.195H42.4938V211H55.8628Z" fill="black"/>
<path d="M92.5011 211V199.543H77.2039V166.195H63.8348V211H92.5011Z" fill="black"/>
<path d="M117.435 211C131.575 211 140.766 201.207 140.766 188.598C140.766 176.052 131.511 166.195 117.435 166.195H98.8593V211H117.435ZM112.228 177.076H116.278C123.026 177.076 126.883 182.325 126.883 188.598C126.883 194.87 123.026 200.119 116.278 200.119H112.228V177.076Z" fill="black"/>
<path d="M159.179 211V166.195H145.81V211H159.179Z" fill="#ED1E79"/>
<path d="M188.49 211V177.652H200.059V166.195H163.487V177.652H175.056V211H188.49Z" fill="#ED1E79"/>
</svg>