<svg width="836" height="780" viewBox="0 0 836 780" fill="none" xmlns="http://www.w3.org/2000/svg">
<line x1="169" y1="22.5" x2="678" y2="22.5" stroke="black"/>
<path d="M4.28038 387.154C6.31038 387.154 7.62637 386.076 7.62637 384.396C7.62637 383.22 6.99638 382.366 5.93238 382.072C6.88438 381.778 7.48638 380.896 7.48638 379.846C7.48638 378.348 6.18438 377.326 4.28038 377.326C2.37638 377.326 1.07438 378.348 1.07438 379.846C1.07438 380.896 1.66238 381.778 2.61438 382.072C1.55038 382.366 0.934375 383.22 0.934375 384.396C0.934375 386.076 2.25038 387.154 4.28038 387.154ZM4.28038 381.554C3.16038 381.554 2.37638 380.924 2.37638 379.972C2.37638 378.978 3.11838 378.362 4.28038 378.362C5.44238 378.362 6.18438 378.978 6.18438 379.972C6.18438 380.924 5.45638 381.554 4.28038 381.554ZM4.28038 386.076C3.04838 386.076 2.23638 385.376 2.23638 384.312C2.23638 383.248 3.09038 382.562 4.28038 382.562C5.52638 382.562 6.33838 383.248 6.33838 384.312C6.33838 385.376 5.51238 386.076 4.28038 386.076ZM17.8891 381.694C17.4831 380.868 16.6151 380.378 15.6211 380.378C13.7031 380.378 12.4011 381.862 12.4011 383.78C12.4011 385.684 13.6191 387.168 15.5931 387.168C16.5311 387.168 17.4831 386.678 17.8891 385.866V386.916C17.8891 388.456 17.1331 389.128 15.7331 389.128C14.5011 389.128 13.8571 388.568 13.7731 387.812H12.4991C12.5271 388.512 12.8771 389.114 13.4511 389.52C14.0391 389.94 14.8651 390.15 15.7471 390.15C16.6711 390.15 17.4271 389.954 17.9731 389.548C18.7011 388.988 19.0931 388.064 19.0931 386.832V380.546H17.8891V381.694ZM15.7611 386.076C14.4871 386.076 13.6051 385.096 13.6051 383.78C13.6051 382.45 14.4731 381.47 15.7611 381.47C17.1191 381.47 17.9451 382.506 17.9451 383.78C17.9451 385.04 17.1191 386.076 15.7611 386.076ZM22.4086 387V384.186C22.4086 382.744 23.0106 381.582 24.2846 381.582C24.5086 381.582 24.6766 381.582 24.8866 381.624V380.504C24.7326 380.462 24.5226 380.448 24.2986 380.448C23.4866 380.448 22.6606 380.924 22.4086 382.016V380.546H21.1906V387H22.4086ZM26.8375 379.44C27.4115 379.44 27.8175 379.006 27.8175 378.46C27.8175 377.914 27.4115 377.466 26.8375 377.466C26.2495 377.466 25.8435 377.914 25.8435 378.46C25.8435 379.006 26.2495 379.44 26.8375 379.44ZM27.4395 387V380.546H26.2355V387H27.4395ZM34.5141 381.694C34.1081 380.896 33.2681 380.378 32.2461 380.378C30.2441 380.378 29.0261 381.876 29.0261 383.78C29.0261 385.684 30.1601 387.168 32.2181 387.168C33.1841 387.168 34.1081 386.664 34.5141 385.866V387H35.7181V377.2H34.5141V381.694ZM32.3861 386.076C31.0561 386.076 30.2301 385.096 30.2301 383.78C30.2301 382.45 31.0561 381.47 32.3861 381.47C33.8001 381.47 34.5701 382.534 34.5701 383.78C34.5701 385.026 33.8001 386.076 32.3861 386.076Z" fill="black"/>
<path d="M805.268 382.772V379.958H804.008V382.772H801.432V377.48H800.172V383.92H804.008V387H805.268V383.92H806.752V382.772H805.268ZM816.862 381.694C816.456 380.868 815.588 380.378 814.594 380.378C812.676 380.378 811.374 381.862 811.374 383.78C811.374 385.684 812.592 387.168 814.566 387.168C815.504 387.168 816.456 386.678 816.862 385.866V386.916C816.862 388.456 816.106 389.128 814.706 389.128C813.474 389.128 812.83 388.568 812.746 387.812H811.472C811.5 388.512 811.85 389.114 812.424 389.52C813.012 389.94 813.838 390.15 814.72 390.15C815.644 390.15 816.4 389.954 816.946 389.548C817.674 388.988 818.066 388.064 818.066 386.832V380.546H816.862V381.694ZM814.734 386.076C813.46 386.076 812.578 385.096 812.578 383.78C812.578 382.45 813.446 381.47 814.734 381.47C816.092 381.47 816.918 382.506 816.918 383.78C816.918 385.04 816.092 386.076 814.734 386.076ZM821.381 387V384.186C821.381 382.744 821.983 381.582 823.257 381.582C823.481 381.582 823.649 381.582 823.859 381.624V380.504C823.705 380.462 823.495 380.448 823.271 380.448C822.459 380.448 821.633 380.924 821.381 382.016V380.546H820.163V387H821.381ZM825.81 379.44C826.384 379.44 826.79 379.006 826.79 378.46C826.79 377.914 826.384 377.466 825.81 377.466C825.222 377.466 824.816 377.914 824.816 378.46C824.816 379.006 825.222 379.44 825.81 379.44ZM826.412 387V380.546H825.208V387H826.412ZM833.487 381.694C833.081 380.896 832.241 380.378 831.219 380.378C829.217 380.378 827.999 381.876 827.999 383.78C827.999 385.684 829.133 387.168 831.191 387.168C832.157 387.168 833.081 386.664 833.487 385.866V387H834.691V377.2H833.487V381.694ZM831.359 386.076C830.029 386.076 829.203 385.096 829.203 383.78C829.203 382.45 830.029 381.47 831.359 381.47C832.773 381.47 833.543 382.534 833.543 383.78C833.543 385.026 832.773 386.076 831.359 386.076Z" fill="black"/>
<path d="M805.52 580V578.852H800.522C800.648 577.774 801.04 577.256 802.216 576.626L803.658 575.856C804.862 575.198 805.52 574.19 805.52 572.986C805.52 571.348 804.358 570.326 802.51 570.326C800.522 570.326 799.248 571.628 799.248 573.644H800.564C800.564 572.244 801.292 571.446 802.51 571.446C803.49 571.446 804.176 572.09 804.176 573.042C804.176 573.924 803.728 574.582 802.86 575.03L801.404 575.8C799.71 576.682 799.038 577.886 799.038 580H805.52ZM815.828 574.694C815.422 573.868 814.554 573.378 813.56 573.378C811.642 573.378 810.34 574.862 810.34 576.78C810.34 578.684 811.558 580.168 813.532 580.168C814.47 580.168 815.422 579.678 815.828 578.866V579.916C815.828 581.456 815.072 582.128 813.672 582.128C812.44 582.128 811.796 581.568 811.712 580.812H810.438C810.466 581.512 810.816 582.114 811.39 582.52C811.978 582.94 812.804 583.15 813.686 583.15C814.61 583.15 815.366 582.954 815.912 582.548C816.64 581.988 817.032 581.064 817.032 579.832V573.546H815.828V574.694ZM813.7 579.076C812.426 579.076 811.544 578.096 811.544 576.78C811.544 575.45 812.412 574.47 813.7 574.47C815.058 574.47 815.884 575.506 815.884 576.78C815.884 578.04 815.058 579.076 813.7 579.076ZM820.347 580V577.186C820.347 575.744 820.949 574.582 822.223 574.582C822.447 574.582 822.615 574.582 822.825 574.624V573.504C822.671 573.462 822.461 573.448 822.237 573.448C821.425 573.448 820.599 573.924 820.347 575.016V573.546H819.129V580H820.347ZM824.776 572.44C825.35 572.44 825.756 572.006 825.756 571.46C825.756 570.914 825.35 570.466 824.776 570.466C824.188 570.466 823.782 570.914 823.782 571.46C823.782 572.006 824.188 572.44 824.776 572.44ZM825.378 580V573.546H824.174V580H825.378ZM832.453 574.694C832.047 573.896 831.207 573.378 830.185 573.378C828.183 573.378 826.965 574.876 826.965 576.78C826.965 578.684 828.099 580.168 830.157 580.168C831.123 580.168 832.047 579.664 832.453 578.866V580H833.657V570.2H832.453V574.694ZM830.325 579.076C828.995 579.076 828.169 578.096 828.169 576.78C828.169 575.45 828.995 574.47 830.325 574.47C831.739 574.47 832.509 575.534 832.509 576.78C832.509 578.026 831.739 579.076 830.325 579.076Z" fill="black"/>
<path d="M409.268 771.772V768.958H408.008V771.772H405.432V766.48H404.172V772.92H408.008V776H409.268V772.92H410.752V771.772H409.268ZM420.862 770.694C420.456 769.868 419.588 769.378 418.594 769.378C416.676 769.378 415.374 770.862 415.374 772.78C415.374 774.684 416.592 776.168 418.566 776.168C419.504 776.168 420.456 775.678 420.862 774.866V775.916C420.862 777.456 420.106 778.128 418.706 778.128C417.474 778.128 416.83 777.568 416.746 776.812H415.472C415.5 777.512 415.85 778.114 416.424 778.52C417.012 778.94 417.838 779.15 418.72 779.15C419.644 779.15 420.4 778.954 420.946 778.548C421.674 777.988 422.066 777.064 422.066 775.832V769.546H420.862V770.694ZM418.734 775.076C417.46 775.076 416.578 774.096 416.578 772.78C416.578 771.45 417.446 770.47 418.734 770.47C420.092 770.47 420.918 771.506 420.918 772.78C420.918 774.04 420.092 775.076 418.734 775.076ZM425.381 776V773.186C425.381 771.744 425.983 770.582 427.257 770.582C427.481 770.582 427.649 770.582 427.859 770.624V769.504C427.705 769.462 427.495 769.448 427.271 769.448C426.459 769.448 425.633 769.924 425.381 771.016V769.546H424.163V776H425.381ZM429.81 768.44C430.384 768.44 430.79 768.006 430.79 767.46C430.79 766.914 430.384 766.466 429.81 766.466C429.222 766.466 428.816 766.914 428.816 767.46C428.816 768.006 429.222 768.44 429.81 768.44ZM430.412 776V769.546H429.208V776H430.412ZM437.487 770.694C437.081 769.896 436.241 769.378 435.219 769.378C433.217 769.378 431.999 770.876 431.999 772.78C431.999 774.684 433.133 776.168 435.191 776.168C436.157 776.168 437.081 775.664 437.487 774.866V776H438.691V766.2H437.487V770.694ZM435.359 775.076C434.029 775.076 433.203 774.096 433.203 772.78C433.203 771.45 434.029 770.47 435.359 770.47C436.773 770.47 437.543 771.534 437.543 772.78C437.543 774.026 436.773 775.076 435.359 775.076Z" fill="black"/>
<path d="M119.881 776V766.48H118.719C118.719 767.67 118.341 768.104 116.633 768.104V769.182H118.621V776H119.881ZM130.995 770.694C130.589 769.868 129.721 769.378 128.727 769.378C126.809 769.378 125.507 770.862 125.507 772.78C125.507 774.684 126.725 776.168 128.699 776.168C129.637 776.168 130.589 775.678 130.995 774.866V775.916C130.995 777.456 130.239 778.128 128.839 778.128C127.607 778.128 126.963 777.568 126.879 776.812H125.605C125.633 777.512 125.983 778.114 126.557 778.52C127.145 778.94 127.971 779.15 128.853 779.15C129.777 779.15 130.533 778.954 131.079 778.548C131.807 777.988 132.199 777.064 132.199 775.832V769.546H130.995V770.694ZM128.867 775.076C127.593 775.076 126.711 774.096 126.711 772.78C126.711 771.45 127.579 770.47 128.867 770.47C130.225 770.47 131.051 771.506 131.051 772.78C131.051 774.04 130.225 775.076 128.867 775.076ZM135.514 776V773.186C135.514 771.744 136.116 770.582 137.39 770.582C137.614 770.582 137.782 770.582 137.992 770.624V769.504C137.838 769.462 137.628 769.448 137.404 769.448C136.592 769.448 135.766 769.924 135.514 771.016V769.546H134.296V776H135.514ZM139.943 768.44C140.517 768.44 140.923 768.006 140.923 767.46C140.923 766.914 140.517 766.466 139.943 766.466C139.355 766.466 138.949 766.914 138.949 767.46C138.949 768.006 139.355 768.44 139.943 768.44ZM140.545 776V769.546H139.341V776H140.545ZM147.62 770.694C147.214 769.896 146.374 769.378 145.352 769.378C143.35 769.378 142.132 770.876 142.132 772.78C142.132 774.684 143.266 776.168 145.324 776.168C146.29 776.168 147.214 775.664 147.62 774.866V776H148.824V766.2H147.62V770.694ZM145.492 775.076C144.162 775.076 143.336 774.096 143.336 772.78C143.336 771.45 144.162 770.47 145.492 770.47C146.906 770.47 147.676 771.534 147.676 772.78C147.676 774.026 146.906 775.076 145.492 775.076Z" fill="black"/>
<path d="M408.28 13.154C410.31 13.154 411.626 12.076 411.626 10.396C411.626 9.22 410.996 8.366 409.932 8.072C410.884 7.778 411.486 6.896 411.486 5.846C411.486 4.348 410.184 3.326 408.28 3.326C406.376 3.326 405.074 4.348 405.074 5.846C405.074 6.896 405.662 7.778 406.614 8.072C405.55 8.366 404.934 9.22 404.934 10.396C404.934 12.076 406.25 13.154 408.28 13.154ZM408.28 7.554C407.16 7.554 406.376 6.924 406.376 5.972C406.376 4.978 407.118 4.362 408.28 4.362C409.442 4.362 410.184 4.978 410.184 5.972C410.184 6.924 409.456 7.554 408.28 7.554ZM408.28 12.076C407.048 12.076 406.236 11.376 406.236 10.312C406.236 9.248 407.09 8.562 408.28 8.562C409.526 8.562 410.338 9.248 410.338 10.312C410.338 11.376 409.512 12.076 408.28 12.076ZM421.889 7.694C421.483 6.868 420.615 6.378 419.621 6.378C417.703 6.378 416.401 7.862 416.401 9.78C416.401 11.684 417.619 13.168 419.593 13.168C420.531 13.168 421.483 12.678 421.889 11.866V12.916C421.889 14.456 421.133 15.128 419.733 15.128C418.501 15.128 417.857 14.568 417.773 13.812H416.499C416.527 14.512 416.877 15.114 417.451 15.52C418.039 15.94 418.865 16.15 419.747 16.15C420.671 16.15 421.427 15.954 421.973 15.548C422.701 14.988 423.093 14.064 423.093 12.832V6.546H421.889V7.694ZM419.761 12.076C418.487 12.076 417.605 11.096 417.605 9.78C417.605 8.45 418.473 7.47 419.761 7.47C421.119 7.47 421.945 8.506 421.945 9.78C421.945 11.04 421.119 12.076 419.761 12.076ZM426.409 13V10.186C426.409 8.744 427.011 7.582 428.285 7.582C428.509 7.582 428.677 7.582 428.887 7.624V6.504C428.733 6.462 428.523 6.448 428.299 6.448C427.487 6.448 426.661 6.924 426.409 8.016V6.546H425.191V13H426.409ZM430.838 5.44C431.412 5.44 431.818 5.006 431.818 4.46C431.818 3.914 431.412 3.466 430.838 3.466C430.25 3.466 429.844 3.914 429.844 4.46C429.844 5.006 430.25 5.44 430.838 5.44ZM431.44 13V6.546H430.236V13H431.44ZM438.514 7.694C438.108 6.896 437.268 6.378 436.246 6.378C434.244 6.378 433.026 7.876 433.026 9.78C433.026 11.684 434.16 13.168 436.218 13.168C437.184 13.168 438.108 12.664 438.514 11.866V13H439.718V3.2H438.514V7.694ZM436.386 12.076C435.056 12.076 434.23 11.096 434.23 9.78C434.23 8.45 435.056 7.47 436.386 7.47C437.8 7.47 438.57 8.534 438.57 9.78C438.57 11.026 437.8 12.076 436.386 12.076Z" fill="black"/>
<line x1="61.5" y1="127" x2="61.5" y2="639.001" stroke="black"/>
<line x1="781.5" y1="265" x2="781.5" y2="501" stroke="black"/>
<line x1="781.5" y1="521" x2="781.5" y2="639" stroke="black"/>
<line x1="294" y1="742.5" x2="550" y2="742.5" stroke="black"/>
<line x1="102" y1="742.5" x2="166" y2="742.5" stroke="black"/>
</svg>