<svg width="408" height="120" viewBox="0 0 408 120" fill="none" xmlns="http://www.w3.org/2000/svg">
<rect x="290.5" y="2.5" width="115" height="115" stroke="url(#paint0_linear)" stroke-width="5"/>
<path d="M345.889 36.25L332.85 84.1895H326.75L339.789 36.25H345.889Z" fill="white"/>
<path d="M368.382 36.25L355.343 84.1895H349.242L362.281 36.25H368.382Z" fill="white"/>
<rect x="146.5" y="2.5" width="115" height="115" stroke="url(#paint1_linear)" stroke-width="5"/>
<path d="M191.266 72.2066L170.25 62.4745V59.2972L191.266 48.2764V53.609L177.071 60.6526L191.266 66.8962V72.2066Z" fill="white"/>
<path d="M213.385 37.5L201.023 82.9163H195.239L207.601 37.5H213.385Z" fill="white"/>
<path d="M217.359 66.8962L231.553 60.6526L217.359 53.609V48.2764L238.375 59.2972V62.4745L217.359 72.2066V66.8962Z" fill="white"/>
<rect x="2.5" y="2.5" width="115" height="115" stroke="url(#paint2_linear)" stroke-width="5"/>
<path d="M84.1992 63.0369V57.426C83.2243 57.426 82.3595 57.3399 81.6047 57.1678C80.8342 56.9956 80.1895 56.7139 79.6706 56.3226C79.1517 55.9313 78.7665 55.4305 78.5149 54.8201C78.2476 54.194 78.1297 53.4428 78.1611 52.5663V43.8565C78.1611 42.5105 78.0117 41.3601 77.713 40.4054C77.4142 39.435 76.8796 38.6446 76.1091 38.0342C75.3229 37.4238 74.2615 36.9778 72.925 36.6961C71.5884 36.3987 69.8902 36.25 67.8303 36.25V41.5323C68.4593 41.5479 69.0332 41.6183 69.5521 41.7436C70.0553 41.8531 70.4877 42.0566 70.8494 42.3539C71.1953 42.6357 71.4626 43.0269 71.6513 43.5278C71.84 44.0286 71.9343 44.6781 71.9343 45.4764V53.8575C72.0287 57.3477 73.8684 59.4215 77.4535 60.0789V60.3606C75.6453 60.6736 74.2615 61.3466 73.3023 62.3796C72.3432 63.4126 71.8872 64.8055 71.9343 66.5585V74.9396C71.9343 75.7379 71.84 76.3874 71.6513 76.8882C71.4626 77.389 71.1953 77.7803 70.8494 78.062C70.4877 78.3594 70.0553 78.5629 69.5521 78.6724C69.0332 78.7976 68.4593 78.8681 67.8303 78.8837V84.1895C69.8902 84.1895 71.5884 84.0408 72.925 83.7434C74.2615 83.4617 75.3229 83.0156 76.1091 82.4052C76.8796 81.7948 77.4142 81.0045 77.713 80.0341C78.0117 79.0637 78.1611 77.9055 78.1611 76.5595V67.9436C78.1611 66.175 78.68 64.9151 79.7178 64.1638C80.7399 63.4126 82.2337 63.0369 84.1992 63.0369Z" fill="white"/>
<path d="M34.9982 63.0135C35.9731 63.0135 36.8458 63.0995 37.6163 63.2717C38.371 63.4439 39.0079 63.7256 39.5267 64.1169C40.0456 64.5082 40.4388 65.0168 40.7061 65.6429C40.9576 66.2533 41.0677 66.9967 41.0363 67.8731V76.583C41.0363 77.929 41.1856 79.0794 41.4844 80.0341C41.7832 81.0045 42.3257 81.7948 43.1119 82.4052C43.8824 83.0156 44.9359 83.4617 46.2724 83.7434C47.609 84.0408 49.3072 84.1895 51.3671 84.1895V78.9072C50.7381 78.8916 50.172 78.8211 49.6689 78.6959C49.15 78.5864 48.7175 78.3829 48.3716 78.0855C48.01 77.8038 47.7348 77.4125 47.5461 76.9117C47.3574 76.4108 47.2631 75.7613 47.2631 74.9631V66.5819C47.1687 63.0917 45.329 61.0179 41.7439 60.3606V60.0789C43.5521 59.7659 44.9359 59.0929 45.8951 58.0599C46.8542 57.0269 47.3102 55.6339 47.2631 53.881V45.4998C47.2631 44.7016 47.3574 44.0521 47.5461 43.5513C47.7348 43.0504 48.01 42.6591 48.3716 42.3774C48.7175 42.0801 49.15 41.8766 49.6689 41.767C50.172 41.6418 50.7381 41.5714 51.3671 41.5557V36.25C49.3072 36.25 47.609 36.3987 46.2724 36.6961C44.9359 36.9778 43.8824 37.4238 43.1119 38.0342C42.3257 38.6446 41.7832 39.435 41.4844 40.4054C41.1856 41.3758 41.0363 42.5339 41.0363 43.8799V52.4959C41.0363 54.2645 40.5252 55.5244 39.5032 56.2756C38.4654 57.0269 36.9637 57.4025 34.9982 57.4025V63.0135Z" fill="white"/>
<defs>
<linearGradient id="paint0_linear" x1="288" y1="0" x2="299.824" y2="129.85" gradientUnits="userSpaceOnUse">
<stop stop-color="#6100FF"/>
<stop offset="1" stop-color="#00D1FF"/>
</linearGradient>
<linearGradient id="paint1_linear" x1="144" y1="0" x2="262.125" y2="120" gradientUnits="userSpaceOnUse">
<stop stop-color="#ED1E79"/>
<stop offset="1" stop-color="#3B1EED"/>
</linearGradient>
<linearGradient id="paint2_linear" x1="4.37499" y1="6.25" x2="13.3696" y2="127.493" gradientUnits="userSpaceOnUse">
<stop stop-color="#ED9A1F"/>
<stop offset="1" stop-color="#ED1E79"/>
</linearGradient>
</defs>
</svg>