<svg xmlns="http://www.w3.org/2000/svg" width="74" height="90" viewBox="0 0 74 90">
  <g id="Code_Empty_Icon" transform="translate(-801 -326)">
    <path id="Path_445" data-name="Path 445" d="M10,0H40.917L64.008,23.248,64,70A10,10,0,0,1,54,80H10A10,10,0,0,1,0,70V10A10,10,0,0,1,10,0Z" transform="translate(801 326)" fill="#f2f2f2"/>
    <path id="Path_446" data-name="Path 446" d="M0,0,23.258,23.258H5.814A5.814,5.814,0,0,1,0,17.443Z" transform="translate(841.75 326)" fill="#e6e6e6"/>
    <circle id="Ellipse_82" data-name="Ellipse 82" cx="20" cy="20" r="20" transform="translate(835 376)" fill="#e6e6e6"/>
    <g id="Icon_feather-code" data-name="Icon feather-code" transform="translate(842 380.98)">
      <path id="Path_447" data-name="Path 447" d="M24,21l6.01-6L24,9" transform="translate(-7.01)" fill="none" stroke="#bfbfbf" stroke-linecap="round" stroke-linejoin="round" stroke-width="2"/>
      <path id="Path_448" data-name="Path 448" d="M9.01,9,3,15l6.01,6" fill="none" stroke="#bfbfbf" stroke-linecap="round" stroke-linejoin="round" stroke-width="2"/>
    </g>
    <rect id="Rectangle_628" data-name="Rectangle 628" width="7" height="2" rx="1" transform="translate(809 339)" fill="#999"/>
    <rect id="Rectangle_634" data-name="Rectangle 634" width="7" height="2" rx="1" transform="translate(809 363)" fill="#bfbfbf"/>
    <rect id="Rectangle_641" data-name="Rectangle 641" width="7" height="2" rx="1" transform="translate(851 363)" fill="#bfbfbf"/>
    <rect id="Rectangle_631" data-name="Rectangle 631" width="11" height="2" rx="1" transform="translate(809 347)" fill="#bfbfbf"/>
    <rect id="Rectangle_636" data-name="Rectangle 636" width="11" height="2" rx="1" transform="translate(809 371)" fill="#999"/>
    <rect id="Rectangle_642" data-name="Rectangle 642" width="11" height="2" rx="1" transform="translate(809 387)" fill="#bfbfbf"/>
    <rect id="Rectangle_644" data-name="Rectangle 644" width="15" height="2" rx="1" transform="translate(809 395)" fill="#999"/>
    <rect id="Rectangle_640" data-name="Rectangle 640" width="21" height="2" rx="1" transform="translate(832 371)" fill="#bfbfbf"/>
    <rect id="Rectangle_633" data-name="Rectangle 633" width="21" height="2" rx="1" transform="translate(809 355)" fill="#999"/>
    <rect id="Rectangle_638" data-name="Rectangle 638" width="21" height="2" rx="1" transform="translate(809 379)" fill="#bfbfbf"/>
    <rect id="Rectangle_629" data-name="Rectangle 629" width="14" height="2" rx="1" transform="translate(818 339)" fill="#bfbfbf"/>
    <rect id="Rectangle_635" data-name="Rectangle 635" width="31" height="2" rx="1" transform="translate(818 363)" fill="#999"/>
    <rect id="Rectangle_630" data-name="Rectangle 630" width="8" height="2" rx="1" transform="translate(822 347)" fill="#999"/>
    <rect id="Rectangle_637" data-name="Rectangle 637" width="8" height="2" rx="1" transform="translate(822 371)" fill="#bfbfbf"/>
    <rect id="Rectangle_643" data-name="Rectangle 643" width="8" height="2" rx="1" transform="translate(822 387)" fill="#999"/>
    <rect id="Rectangle_632" data-name="Rectangle 632" width="11" height="2" rx="1" transform="translate(831 355)" fill="#bfbfbf"/>
    <rect id="Rectangle_639" data-name="Rectangle 639" width="7" height="2" rx="1" transform="translate(831 379)" fill="#999"/>
  </g>
</svg>